<svg width="25" height="25" viewBox="0 0 25 25" fill="none" xmlns="http://www.w3.org/2000/svg">
<path fill-rule="evenodd" clip-rule="evenodd" d="M0 5.46875C0 5.03728 0.349778 4.6875 0.78125 4.6875H1.5625C5.00328 4.6875 7.54221 6.62546 9.17766 8.46534C9.94445 9.32797 10.5303 10.1878 10.9375 10.8593C11.3447 10.1878 11.9306 9.32797 12.6973 8.46534C14.3328 6.62546 16.8717 4.6875 20.3125 4.6875V6.25C17.5033 6.25 15.3547 7.82767 13.8652 9.50341C13.1253 10.3357 12.5679 11.1713 12.1955 11.7996C12.027 12.084 11.8974 12.3242 11.807 12.5C11.8974 12.6758 12.027 12.916 12.1955 13.2003C12.5679 13.8287 13.1253 14.6643 13.8652 15.4966C15.3547 17.1723 17.5033 18.75 20.3125 18.75V20.3125C16.8717 20.3125 14.3328 18.3745 12.6973 16.5347C11.9306 15.672 11.3447 14.8122 10.9375 14.1407C10.5303 14.8122 9.94445 15.672 9.17766 16.5347C7.54221 18.3745 5.00328 20.3125 1.5625 20.3125H0.78125C0.349778 20.3125 0 19.9627 0 19.5312C0 19.0998 0.349778 18.75 0.78125 18.75H1.5625C4.37172 18.75 6.52029 17.1723 8.00984 15.4966C8.74968 14.6643 9.30711 13.8287 9.67946 13.2003C9.84799 12.916 9.97756 12.6758 10.068 12.5C9.97756 12.3242 9.84799 12.084 9.67946 11.7996C9.30711 11.1713 8.74968 10.3357 8.00984 9.50341C6.52029 7.82767 4.37172 6.25 1.5625 6.25H0.78125C0.349778 6.25 0 5.90022 0 5.46875Z" fill="white"/>
<path d="M20.3125 8.541V2.3965C20.3125 2.06531 20.6988 1.88439 20.9532 2.09641L24.6399 5.16866C24.8273 5.32483 24.8273 5.61266 24.6399 5.76883L20.9532 8.84108C20.6988 9.0531 20.3125 8.87218 20.3125 8.541Z" fill="white"/>
<path d="M20.3125 22.6035V16.459C20.3125 16.1278 20.6988 15.9469 20.9532 16.1589L24.6399 19.2312C24.8273 19.3873 24.8273 19.6752 24.6399 19.8313L20.9532 22.9036C20.6988 23.1156 20.3125 22.9347 20.3125 22.6035Z" fill="white"/>
</svg>
